HIERARCHY
ROOT Haolin_V1:Solving:Hips
{
	OFFSET 0.000000 0.000000 0.000000
	CHANNELS 6 Xposition Yposition Zposition Xrotation Yrotation Zrotation
	JOINT Haolin_V1:Solving:Spine
	{
		OFFSET 0.000000 -12.731938 2.520517
		CHANNELS 6 Xposition Yposition Zposition Xrotation Yrotation Zrotation
		JOINT Haolin_V1:Solving:Spine1
		{
			OFFSET 0.000000 -8.486854 1.496462
			CHANNELS 6 Xposition Yposition Zposition Xrotation Yrotation Zrotation
			JOINT Haolin_V1:Solving:Spine2
			{
				OFFSET 0.000000 -8.584984 0.751091
				CHANNELS 6 Xposition Yposition Zposition Xrotation Yrotation Zrotation
				JOINT Haolin_V1:Solving:Spine3
				{
					OFFSET 0.000000 -8.617775 0.000000
					CHANNELS 6 Xposition Yposition Zposition Xrotation Yrotation Zrotation
					JOINT Haolin_V1:Solving:Neck
					{
						OFFSET 0.000000 -11.080002 -1.107998
						CHANNELS 6 Xposition Yposition Zposition Xrotation Yrotation Zrotation
						JOINT Haolin_V1:Solving:Neck1
						{
							OFFSET 0.000000 -8.314011 -0.727381
							CHANNELS 6 Xposition Yposition Zposition Xrotation Yrotation Zrotation
							JOINT Haolin_V1:Solving:Head
							{
								OFFSET 0.000000 -8.218975 -1.449226
								CHANNELS 6 Xposition Yposition Zposition Xrotation Yrotation Zrotation
								JOINT Haolin_V1:Solving:HeadEnd
								{
									OFFSET 0.000000 -9.728081 0.000002
									CHANNELS 6 Xposition Yposition Zposition Xrotation Yrotation Zrotation
									End Site
									{
										OFFSET 0.000000 -9.728081 0.000002
									}
								}
							}
						}
					}
					JOINT Haolin_V1:Solving:RightShoulder
					{
						OFFSET 0.000000 -7.914288 -5.288076
						CHANNELS 6 Xposition Yposition Zposition Xrotation Yrotation Zrotation
						JOINT Haolin_V1:Solving:RightArm
						{
							OFFSET -20.201836 -0.000008 0.000000
							CHANNELS 6 Xposition Yposition Zposition Xrotation Yrotation Zrotation
							JOINT Haolin_V1:Solving:RightForeArm
							{
								OFFSET -29.446457 -0.000008 0.000000
								CHANNELS 6 Xposition Yposition Zposition Xrotation Yrotation Zrotation
								JOINT Haolin_V1:Solving:RightHand
								{
									OFFSET -23.111885 -0.000008 0.000000
									CHANNELS 6 Xposition Yposition Zposition Xrotation Yrotation Zrotation
									JOINT Haolin_V1:Solving:RightHandThumb1
									{
										OFFSET -3.824379 2.925484 -2.843767
										CHANNELS 6 Xposition Yposition Zposition Xrotation Yrotation Zrotation
										End Site
										{
											OFFSET -5.557076 0.000000 -5.608460
										}
									}
									JOINT Haolin_V1:Solving:RightHandMiddle1
									{
										OFFSET -10.198334 -0.000004 0.065374
										CHANNELS 6 Xposition Yposition Zposition Xrotation Yrotation Zrotation
										End Site
										{
											OFFSET -7.895309 -0.000004 0.000000
										}
									}
								}
							}
						}
					}
					JOINT Haolin_V1:Solving:LeftShoulder
					{
						OFFSET 0.000000 -7.914288 -5.288076
						CHANNELS 6 Xposition Yposition Zposition Xrotation Yrotation Zrotation
						JOINT Haolin_V1:Solving:LeftArm
						{
							OFFSET 20.201836 -0.000008 0.000000
							CHANNELS 6 Xposition Yposition Zposition Xrotation Yrotation Zrotation
							JOINT Haolin_V1:Solving:LeftForeArm
							{
								OFFSET 29.446457 -0.000008 0.000000
								CHANNELS 6 Xposition Yposition Zposition Xrotation Yrotation Zrotation
								JOINT Haolin_V1:Solving:LeftHand
								{
									OFFSET 23.111885 -0.000008 0.000000
									CHANNELS 6 Xposition Yposition Zposition Xrotation Yrotation Zrotation
									JOINT Haolin_V1:Solving:LeftHandThumb1
									{
										OFFSET 3.824379 2.925484 -2.843767
										CHANNELS 6 Xposition Yposition Zposition Xrotation Yrotation Zrotation
										End Site
										{
											OFFSET 5.557076 0.000000 -5.608460
										}
									}
									JOINT Haolin_V1:Solving:LeftHandMiddle1
									{
										OFFSET 10.198334 -0.000004 0.065374
										CHANNELS 6 Xposition Yposition Zposition Xrotation Yrotation Zrotation
										End Site
										{
											OFFSET 7.895309 -0.000004 0.000000
										}
									}
								}
							}
						}
					}
				}
			}
		}
	}
	JOINT Haolin_V1:Solving:RightUpLeg
	{
		OFFSET -10.695510 0.000000 0.000000
		CHANNELS 6 Xposition Yposition Zposition Xrotation Yrotation Zrotation
		JOINT Haolin_V1:Solving:RightLeg
		{
			OFFSET 0.000000 46.236332 -0.000006
			CHANNELS 6 Xposition Yposition Zposition Xrotation Yrotation Zrotation
			JOINT Haolin_V1:Solving:RightFoot
			{
				OFFSET 0.000000 41.248135 -0.000006
				CHANNELS 6 Xposition Yposition Zposition Xrotation Yrotation Zrotation
				JOINT Haolin_V1:Solving:RightForeFoot
				{
					OFFSET 0.000000 3.207336 -0.000000
					CHANNELS 6 Xposition Yposition Zposition Xrotation Yrotation Zrotation
					JOINT Haolin_V1:Solving:RightToeBase
					{
						OFFSET 0.000000 0.000000 -12.560947
						CHANNELS 6 Xposition Yposition Zposition Xrotation Yrotation Zrotation
						JOINT Haolin_V1:Solving:RightToeBaseEnd
						{
							OFFSET 0.000000 0.000000 -3.517768
							CHANNELS 6 Xposition Yposition Zposition Xrotation Yrotation Zrotation
							End Site
							{
								OFFSET 0.000000 -3.517769 0.000004
							}
						}
					}
				}
			}
		}
	}
	JOINT Haolin_V1:Solving:LeftUpLeg
	{
		OFFSET 10.695510 0.000000 0.000000
		CHANNELS 6 Xposition Yposition Zposition Xrotation Yrotation Zrotation
		JOINT Haolin_V1:Solving:LeftLeg
		{
			OFFSET 0.000000 46.236332 -0.000006
			CHANNELS 6 Xposition Yposition Zposition Xrotation Yrotation Zrotation
			JOINT Haolin_V1:Solving:LeftFoot
			{
				OFFSET 0.000000 41.248135 -0.000006
				CHANNELS 6 Xposition Yposition Zposition Xrotation Yrotation Zrotation
				JOINT Haolin_V1:Solving:LeftForeFoot
				{
					OFFSET 0.000000 3.207336 -0.000000
					CHANNELS 6 Xposition Yposition Zposition Xrotation Yrotation Zrotation
					JOINT Haolin_V1:Solving:LeftToeBase
					{
						OFFSET 0.000000 0.000000 -12.560947
						CHANNELS 6 Xposition Yposition Zposition Xrotation Yrotation Zrotation
						JOINT Haolin_V1:Solving:LeftToeBaseEnd
						{
							OFFSET 0.000000 0.000000 -3.901837
							CHANNELS 6 Xposition Yposition Zposition Xrotation Yrotation Zrotation
							End Site
							{
								OFFSET 0.000000 -3.901840 0.000004
							}
						}
					}
				}
			}
		}
	}
}
MOTION
Frames: 6
Frame Time: 0.041667
-22.052919 -99.519897 -94.674278 87.787178 -1.086333 -0.640579 -0.000004 -12.731934 2.520516 11.054590 -0.909197 -3.916046 0.000006 -8.486823 1.496456 -0.538728 -0.053794 -0.143614 0.000002 -8.584984 0.751107 -5.477436 0.072983 0.611615 -0.000000 -8.617770 0.000002 -2.495774 -0.235915 0.946275 -0.000002 -11.079972 -1.107999 3.395768 -2.132612 -1.560076 0.000001 -8.314008 -0.727384 2.945751 -7.964834 -1.136364 0.000000 -8.218961 -1.449216 12.483375 -0.485657 -1.178498 -0.000004 -9.728050 -0.000032 0.000000 0.000001 -0.000000 -0.000004 -7.914291 -5.288083 -0.000011 19.682320 10.878802 -20.201838 0.000007 -0.000008 -0.632192 -40.404233 -82.985897 -29.446466 0.000001 0.000008 18.422048 -22.772310 7.346359 -23.111889 -0.000027 0.000017 0.249639 -3.604256 3.964765 -3.824396 2.925471 -2.843761 -0.000005 -0.000003 -0.000003 -10.198348 0.000004 0.065373 0.000002 -0.000005 0.000001 -0.000001 -7.914280 -5.288083 -0.000008 -13.733228 -9.473130 20.201813 0.000014 -0.000009 -4.988567 27.959661 89.807275 29.446447 -0.000009 -0.000001 26.250403 7.905258 -3.880186 23.111904 -0.000019 -0.000011 0.049795 0.154156 -17.909526 3.824384 2.925491 -2.843744 0.000005 0.000014 -0.000003 10.198345 0.000009 0.065388 0.000008 0.000006 0.000004 -10.695515 -0.000001 0.000007 9.117718 10.603499 -1.682312 -0.000005 46.236332 0.000004 -1.058123 -0.000001 0.000000 0.000001 41.248146 -0.000005 -6.149465 0.361575 -4.060903 -0.000014 3.207336 -0.000002 -0.000000 0.000002 0.000001 -0.000005 -0.000010 -12.560960 10.391039 -0.000002 -0.000000 -0.000005 0.000001 -3.517747 0.000003 -0.000003 -0.000000 10.695510 0.000005 0.000012 -3.291536 -13.770053 -4.374455 -0.000003 46.236355 -0.000020 17.537868 -0.000002 0.000000 0.000002 41.248150 -0.000015 -7.832706 -15.821717 -3.686337 -0.000002 3.207337 0.000018 -0.000001 -0.000002 0.000001 0.000016 -0.000002 -12.560933 6.961022 0.000007 -0.000001 -0.000016 -0.000000 -3.901840 -0.000001 -0.000002 0.000001 
-22.085611 -99.459259 -94.679314 87.758710 -1.056920 -0.788305 0.000005 -12.731913 2.520508 11.120382 -0.926964 -3.779620 0.000002 -8.486853 1.496474 -0.508185 -0.054601 -0.135741 0.000004 -8.585001 0.751105 -5.487467 0.033011 0.606567 -0.000008 -8.617772 0.000005 -2.502228 -0.252549 0.947043 0.000003 -11.079972 -1.108005 3.431959 -2.121925 -1.534625 -0.000000 -8.314011 -0.727392 2.949539 -7.949440 -1.151746 -0.000002 -8.218975 -1.449254 12.475191 -0.483074 -1.189624 -0.000004 -9.728081 0.000013 -0.000001 0.000001 -0.000001 0.000003 -7.914265 -5.288089 -0.000011 19.631878 10.843374 -20.201834 -0.000008 -0.000008 -0.627885 -41.209332 -83.395128 -29.446465 -0.000001 0.000009 18.293799 -22.784246 7.295723 -23.111895 -0.000027 -0.000002 0.280325 -3.565783 4.497998 -3.824410 2.925482 -2.843755 0.000008 -0.000007 -0.000002 -10.198348 -0.000017 0.065377 -0.000001 -0.000007 0.000001 0.000002 -7.914265 -5.288089 -0.000004 -13.681006 -9.377152 20.201828 -0.000011 -0.000017 -5.113525 28.690876 90.169808 29.446432 0.000007 -0.000014 26.743640 7.945113 -3.984280 23.111862 -0.000029 0.000001 0.042182 0.130885 -17.871728 3.824402 2.925477 -2.843753 0.000001 0.000007 0.000001 10.198348 -0.000016 0.065379 0.000003 0.000000 -0.000002 -10.695510 0.000003 -0.000018 9.160556 10.712754 -1.552652 -0.000010 46.236332 -0.000013 -1.048710 -0.000001 0.000000 -0.000006 41.248142 -0.000011 -6.247457 0.295166 -4.048497 -0.000003 3.207336 -0.000004 -0.000000 0.000000 0.000000 -0.000011 -0.000002 -12.560945 10.368642 -0.000001 -0.000000 -0.000003 0.000000 -3.517782 0.000000 -0.000002 -0.000000 10.695515 0.000013 -0.000007 -3.574894 -13.180374 -4.218556 0.000000 46.236332 -0.000019 18.312485 -0.000002 0.000001 -0.000001 41.248150 -0.000009 -7.647947 -16.420946 -3.949509 -0.000002 3.207336 0.000002 -0.000000 -0.000001 0.000001 0.000002 -0.000011 -12.560929 6.609046 0.000001 -0.000000 -0.000005 0.000001 -3.901850 0.000002 -0.000001 0.000002 
-22.135281 -99.416702 -94.676392 87.777234 -1.041527 -0.919828 0.000008 -12.731951 2.520520 11.161958 -1.013213 -3.595488 -0.000002 -8.486855 1.496459 -0.489013 -0.048712 -0.154567 -0.000000 -8.584981 0.751093 -5.508110 0.058136 0.580187 0.000006 -8.617757 0.000005 -2.500117 -0.244442 0.946875 -0.000004 -11.080035 -1.108030 3.434766 -2.131738 -1.528271 0.000002 -8.314051 -0.727401 2.975810 -7.939111 -1.148549 -0.000001 -8.218945 -1.449238 12.487266 -0.481933 -1.199036 0.000000 -9.728096 0.000009 0.000001 0.000000 -0.000001 -0.000003 -7.914314 -5.288103 -0.000011 19.552759 10.824093 -20.201820 0.000004 -0.000009 -0.675352 -41.965936 -83.834418 -29.446466 -0.000000 -0.000004 18.296267 -22.756633 7.288479 -23.111912 -0.000010 -0.000004 0.311929 -3.580827 4.981773 -3.824371 2.925486 -2.843774 0.000003 -0.000003 -0.000000 -10.198341 0.000007 0.065365 0.000003 -0.000003 -0.000000 -0.000002 -7.914299 -5.288103 -0.000002 -13.647836 -9.308122 20.201824 0.000028 -0.000013 -5.280835 29.438279 90.519152 29.446459 0.000003 -0.000002 27.045509 7.977786 -4.052928 23.111889 -0.000015 0.000001 0.067924 0.212107 -17.762219 3.824364 2.925464 -2.843752 0.000009 0.000003 0.000001 10.198308 -0.000025 0.065374 -0.000004 -0.000000 -0.000003 -10.695504 -0.000010 0.000011 9.139521 10.810146 -1.458505 -0.000009 46.236328 -0.000027 -1.021949 -0.000001 0.000000 0.000001 41.248154 -0.000001 -6.385157 0.278130 -3.969318 -0.000009 3.207336 -0.000015 -0.000000 0.000000 -0.000000 0.000002 -0.000016 -12.560962 10.599191 -0.000001 -0.000000 -0.000010 0.000008 -3.517766 0.000002 -0.000000 -0.000001 10.695518 -0.000025 -0.000001 -4.003804 -12.470278 -4.085476 0.000001 46.236340 -0.000010 19.277473 0.000002 0.000001 -0.000002 41.248135 -0.000004 -7.610011 -17.219617 -3.988546 0.000007 3.207336 -0.000002 0.000000 0.000001 0.000002 -0.000002 -0.000003 -12.560954 6.206493 -0.000000 0.000001 0.000004 0.000000 -3.901841 -0.000000 0.000002 -0.000001 
-22.152346 -99.343277 -94.679222 87.758252 -1.026837 -1.077177 -0.000000 -12.731936 2.520512 11.198360 -1.045784 -3.463573 -0.000002 -8.486844 1.496462 -0.472649 -0.049680 -0.159674 -0.000003 -8.584981 0.751101 -5.502495 0.035970 0.583166 0.000000 -8.617761 0.000005 -2.485246 -0.246116 0.977234 0.000002 -11.080009 -1.107983 3.451306 -2.142663 -1.525221 -0.000002 -8.314016 -0.727374 3.001851 -7.926134 -1.145929 0.000003 -8.218988 -1.449196 12.493214 -0.480606 -1.216078 0.000002 -9.728081 -0.000026 0.000002 0.000001 0.000001 0.000002 -7.914288 -5.288064 -0.000008 19.473663 10.793424 -20.201834 0.000004 -0.000015 -0.715656 -42.705809 -84.241784 -29.446436 -0.000013 0.000006 18.389936 -22.732927 7.320897 -23.111856 -0.000013 -0.000009 0.333198 -3.547544 5.369242 -3.824380 2.925494 -2.843790 0.000001 -0.000003 -0.000001 -10.198315 0.000012 0.065361 -0.000005 0.000000 0.000005 0.000001 -7.914276 -5.288071 -0.000002 -13.625658 -9.287923 20.201834 -0.000009 -0.000004 -5.474378 30.243108 90.897967 29.446470 -0.000021 -0.000006 27.307875 8.019539 -4.119940 23.111887 -0.000014 0.000008 0.049128 0.154880 -17.608943 3.824391 2.925470 -2.843757 0.000010 0.000009 -0.000003 10.198334 -0.000005 0.065396 0.000012 0.000003 0.000000 -10.695502 0.000012 0.000003 9.170682 10.943765 -1.326682 -0.000012 46.236351 0.000013 -1.006541 0.000001 -0.000000 -0.000005 41.248131 -0.000005 -6.515846 0.271877 -3.823235 0.000014 3.207329 0.000006 0.000000 0.000001 0.000000 0.000008 -0.000004 -12.560960 10.680935 -0.000002 0.000001 -0.000007 -0.000000 -3.517781 0.000000 -0.000001 0.000001 10.695508 0.000018 0.000008 -4.416752 -12.004310 -3.931030 0.000001 46.236324 0.000001 20.282366 -0.000000 0.000001 -0.000000 41.248142 0.000011 -7.541610 -17.810883 -4.244863 -0.000004 3.207336 -0.000001 -0.000001 0.000001 0.000001 -0.000010 -0.000011 -12.560942 6.165397 0.000002 -0.000000 0.000005 -0.000000 -3.901855 -0.000001 -0.000000 0.000002 
-22.180338 -99.277214 -94.688034 87.709929 -1.043940 -1.218015 -0.000005 -12.731932 2.520504 11.282829 -1.047898 -3.351129 0.000001 -8.486858 1.496482 -0.439595 -0.049533 -0.141070 -0.000001 -8.584973 0.751091 -5.501016 0.009272 0.581893 0.000002 -8.617770 -0.000003 -2.482339 -0.254941 0.980080 0.000005 -11.079980 -1.108006 3.470625 -2.149471 -1.487314 -0.000001 -8.314019 -0.727388 2.991517 -7.916257 -1.174862 -0.000002 -8.218966 -1.449210 12.500174 -0.478220 -1.224825 -0.000002 -9.728081 -0.000013 0.000002 0.000001 -0.000000 -0.000002 -7.914238 -5.288101 -0.000009 19.407947 10.768118 -20.201853 -0.000002 -0.000022 -0.801676 -43.447820 -84.643714 -29.446465 0.000002 0.000005 18.519713 -22.705876 7.367492 -23.111887 -0.000013 0.000004 0.344957 -3.514892 5.608817 -3.824404 2.925480 -2.843782 0.000001 -0.000009 -0.000004 -10.198335 -0.000003 0.065363 0.000001 -0.000001 -0.000001 -0.000002 -7.914242 -5.288101 -0.000002 -13.576383 -9.253705 20.201817 -0.000022 0.000004 -5.679602 30.858446 91.248131 29.446432 -0.000019 -0.000022 27.559291 8.063153 -4.186651 23.111897 -0.000006 0.000006 0.038665 0.123272 -17.423242 3.824362 2.925474 -2.843761 0.000007 0.000010 -0.000012 10.198313 -0.000001 0.065367 -0.000006 0.000002 -0.000007 -10.695518 0.000009 -0.000024 9.227898 11.113904 -1.208875 -0.000007 46.236328 0.000003 -0.983774 0.000001 -0.000000 -0.000004 41.248131 0.000001 -6.592625 0.187087 -3.789141 -0.000005 3.207336 -0.000003 -0.000000 -0.000002 -0.000000 0.000001 0.000001 -12.560954 10.746910 -0.000001 -0.000000 -0.000005 0.000000 -3.517784 0.000001 -0.000000 0.000001 10.695509 0.000020 -0.000014 -4.894211 -11.609156 -3.806930 -0.000003 46.236355 -0.000014 21.387402 0.000000 0.000003 -0.000001 41.248146 -0.000002 -7.156108 -18.171168 -4.794619 -0.000013 3.207337 -0.000006 -0.000000 -0.000004 -0.000000 0.000005 0.000014 -12.560918 4.844057 -0.000003 -0.000002 -0.000000 0.000008 -3.901844 0.000000 0.000002 -0.000001 
-22.195385 -99.199783 -94.688751 87.670177 -1.070738 -1.301729 0.000002 -12.731911 2.520512 11.350796 -1.072905 -3.324612 -0.000000 -8.486816 1.496440 -0.429213 -0.049385 -0.141435 -0.000003 -8.584984 0.751085 -5.498429 -0.005954 0.583163 0.000001 -8.617766 0.000004 -2.467102 -0.257886 1.015432 0.000003 -11.080032 -1.108013 3.484916 -2.148676 -1.479195 -0.000001 -8.314016 -0.727381 3.017696 -7.896586 -1.155063 -0.000006 -8.218965 -1.449223 12.513109 -0.478074 -1.214187 -0.000002 -9.728043 -0.000006 0.000002 0.000001 0.000000 -0.000000 -7.914303 -5.288091 -0.000010 19.335483 10.771437 -20.201828 -0.000023 -0.000006 -0.897872 -44.174774 -85.039072 -29.446476 0.000001 0.000002 18.751478 -22.680183 7.457562 -23.111887 -0.000041 -0.000000 0.355461 -3.488440 5.821891 -3.824401 2.925477 -2.843753 0.000003 0.000002 0.000001 -10.198357 -0.000008 0.065388 -0.000003 -0.000004 -0.000001 0.000002 -7.914303 -5.288091 -0.000006 -13.506599 -9.218504 20.201822 -0.000016 0.000020 -5.869445 31.421070 91.610015 29.446440 -0.000001 0.000017 27.904407 8.027265 -4.229395 23.111864 -0.000014 0.000005 0.048468 0.154355 -17.439734 3.824382 2.925497 -2.843760 0.000002 0.000003 -0.000006 10.198325 0.000009 0.065373 -0.000002 -0.000000 -0.000001 -10.695511 0.000023 0.000002 9.293044 11.314323 -1.142798 -0.000005 46.236324 -0.000032 -0.962590 -0.000000 0.000000 0.000007 41.248165 -0.000015 -6.669809 0.098101 -3.723744 0.000001 3.207337 0.000010 0.000000 -0.000001 0.000000 -0.000008 -0.000014 -12.560948 10.746270 0.000001 -0.000001 -0.000000 0.000016 -3.517791 0.000001 -0.000002 -0.000000 10.695513 0.000028 -0.000003 -5.420997 -11.150699 -3.743928 0.000001 46.236355 -0.000012 22.615151 -0.000001 0.000002 -0.000002 41.248142 -0.000013 -7.296891 -18.973904 -4.664870 -0.000011 3.207337 0.000003 -0.000000 0.000002 -0.000001 0.000005 -0.000011 -12.560956 5.472067 -0.000004 -0.000001 0.000005 -0.000015 -3.901831 0.000000 0.000002 -0.000001 
